# File created by Blade
# Date/Time:  Tue Sep 30 19:28:31 2014
#---------------------------------------------------------
:version 1.10
:name HOM
:units
  mass 1.0
  length 1.000000
  angle deg
:documentation
     Acclaim Skeleton File
:root
   axis xyz
   order TX TY TZ RX RY RZ
   position 0.000000 0.000000 0.000000
   orientation 0 0 0
:bonedata
   begin
      id 1
      name RightUpLeg_dum
      direction -1.000000 0.000000 0.000000
      length 3.766986
      axis 0.0 0.0 0.0 xyz
   end
   begin
      id 2
      name LeftUpLeg_dum
      direction 1.000000 0.000000 0.000000
      length 3.766986
      axis 0.0 0.0 0.0 xyz
   end
   begin
      id 3
      name Spine_dum
      direction 0.000000 1.000000 0.000000
      length 7.779697
      axis 0.0 0.0 0.0 xyz
   end
   begin
      id 4
      name RightUpLeg
      direction 0.000000 -1.000000 0.000000
      length 18.017682
      axis 0.0 0.0 0.0 xyz
      dof rx ry rz
   end
   begin
      id 5
      name RightLeg
      direction 0.000000 -1.000000 0.000000
      length 16.881075
      axis 0.0 0.0 0.0 xyz
      dof rx ry rz
   end
   begin
      id 6
      name RightFoot
      direction 0.000000 -0.258819 0.965926
      length 5.770812
      axis 15.0 0.0 0.0 xyz
      dof rx ry rz
   end
   begin
      id 7
      name RightToeBase
      direction 0.000000 0.000000 1.000000
      length 2.952750
      axis 0.0 0.0 0.0 xyz
      dof rx ry rz
   end
   begin
      id 8
      name LeftUpLeg
      direction 0.000000 -1.000000 0.000000
      length 18.017682
      axis 0.0 0.0 0.0 xyz
      dof rx ry rz
   end
   begin
      id 9
      name LeftLeg
      direction 0.000000 -1.000000 0.000000
      length 16.881075
      axis 0.0 0.0 0.0 xyz
      dof rx ry rz
   end
   begin
      id 10
      name LeftFoot
      direction 0.000000 -0.258819 0.965926
      length 5.770812
      axis 15.0 0.0 0.0 xyz
      dof rx ry rz
   end
   begin
      id 11
      name LeftToeBase
      direction 0.000000 0.000000 1.000000
      length 2.952750
      axis 0.0 0.0 0.0 xyz
      dof rx ry rz
   end
   begin
      id 12
      name Spine
      direction 0.000000 1.000000 0.000000
      length 0.000000
      axis 0.0 0.0 0.0 xyz
      dof rx ry rz
   end
   begin
      id 13
      name Spine_dum1
      direction 0.000000 1.000000 0.000000
      length 10.941760
      axis 0.0 0.0 0.0 xyz
   end
   begin
      id 14
      name Spine_dum2
      direction 0.000000 1.000000 0.000000
      length 10.941760
      axis 0.0 0.0 0.0 xyz
   end
   begin
      id 15
      name Spine_dum3
      direction 0.000000 1.000000 0.000000
      length 16.646042
      axis 0.0 0.0 0.0 xyz
   end
   begin
      id 16
      name RightShoulder
      direction -1.000000 0.000000 0.000000
      length 7.708937
      axis 0.0 0.0 90.0 xyz
      dof rx ry rz
   end
   begin
      id 17
      name RightArm
      direction -1.000000 0.000000 0.000000
      length 11.521345
      axis 0.0 0.0 90.0 xyz
      dof rx ry rz
   end
   begin
      id 18
      name RightForeArm
      direction -1.000000 0.000000 0.000000
      length 10.175898
      axis 0.0 0.0 90.0 xyz
      dof ry rz rx
   end
   begin
      id 19
      name RightHand
      direction -1.000000 0.000000 0.000000
      length 0.000000
      axis 0.0 0.0 90.0 xyz
      dof rx ry rz
   end
   begin
      id 20
      name RightHand_dum1
      direction -1.000000 0.000000 0.000000
      length 3.937000
      axis 0.0 0.0 90.0 xyz
   end
   begin
      id 21
      name RightHand_dum2
      direction 0.000000 0.000000 0.000000
      length 0.000000
      axis 0.0 0.0 90.0 xyz
   end
   begin
      id 22
      name RightHandThumb1
      direction 0.000000 0.000000 1.000000
      length 3.937000
      axis 0.0 0.0 90.0 xyz
      dof rx rz ry
   end
   begin
      id 23
      name LeftShoulder
      direction 1.000000 0.000000 0.000000
      length 7.708937
      axis 0.0 0.0 -90.0 xyz
      dof rx ry rz
   end
   begin
      id 24
      name LeftArm
      direction 1.000000 0.000000 0.000000
      length 11.521345
      axis 0.0 0.0 -90.0 xyz
      dof rx ry rz
   end
   begin
      id 25
      name LeftForeArm
      direction 1.000000 0.000000 0.000000
      length 10.175898
      axis 0.0 0.0 -90.0 xyz
      dof ry rz rx
   end
   begin
      id 26
      name LeftHand
      direction 1.000000 0.000000 0.000000
      length 0.000000
      axis 0.0 0.0 -90.0 xyz
      dof rx ry rz
   end
   begin
      id 27
      name LeftHand_dum1
      direction 1.000000 0.000000 0.000000
      length 3.937000
      axis 0.0 0.0 -90.0 xyz
   end
   begin
      id 28
      name LeftHand_dum2
      direction 0.000000 0.000000 0.000000
      length 0.000000
      axis 0.0 0.0 -90.0 xyz
   end
   begin
      id 29
      name LeftHandThumb1
      direction 0.000000 0.000000 1.000000
      length 3.937000
      axis 0.0 0.0 -90.0 xyz
      dof rx rz ry
   end
   begin
      id 30
      name Head
      direction 0.000000 1.000000 0.000000
      length 4.527550
      axis 0.0 0.0 0.0 xyz
      dof rx ry rz
   end
:hierarchy
   begin
      root RightUpLeg_dum LeftUpLeg_dum Spine_dum
      RightUpLeg_dum RightUpLeg
      LeftUpLeg_dum LeftUpLeg
      Spine_dum Spine
      RightUpLeg RightLeg
      RightLeg RightFoot
      RightFoot RightToeBase
      LeftUpLeg LeftLeg
      LeftLeg LeftFoot
      LeftFoot LeftToeBase
      Spine Spine_dum1 Spine_dum2 Spine_dum3
      Spine_dum1 RightShoulder
      Spine_dum2 LeftShoulder
      Spine_dum3 Head
      RightShoulder RightArm
      RightArm RightForeArm
      RightForeArm RightHand
      RightHand RightHand_dum1 RightHand_dum2
      RightHand_dum2 RightHandThumb1
      LeftShoulder LeftArm
      LeftArm LeftForeArm
      LeftForeArm LeftHand
      LeftHand LeftHand_dum1 LeftHand_dum2
      LeftHand_dum2 LeftHandThumb1
   end

# File created by Blade
# Date/Time:  Mon Sep 22 15:39:46 2014
# Frame Rate: 120.000 fps
#------------------------------------------------------
:FULLY-SPECIFIED
:DEGREES
1
root 2.539225 37.100613 1.818636 -3.443416 -4.530867 1.884698
RightUpLeg 9.926678 -4.472388 -4.355119
RightLeg -4.748011 -0.000000 0.000000
RightFoot -11.760951 -14.644276 16.226762
RightToeBase 15.893332 -0.000000 -0.000000
LeftUpLeg 8.847036 2.642236 1.013412
LeftLeg -1.978280 -0.000000 0.000000
LeftFoot -9.774098 14.394031 -17.245499
LeftToeBase 9.925012 -0.000000 -0.000000
Spine 6.224579 -1.929396 -1.216083
RightShoulder -1.870201 -12.061630 -27.137098
RightArm 11.470526 29.149646 28.371765
RightForeArm 9.898413 -0.000000 17.418418
RightHand -0.243262 -0.000000 -2.587089
RightHandThumb1 -24.326973 -0.000000 -32.862282
LeftShoulder -19.900845 33.301833 16.356918
LeftArm 43.603353 -47.543899 -50.722055
LeftForeArm 40.383373 0.000000 6.914926
LeftHand -18.987293 -0.000000 -7.436284
LeftHandThumb1 -26.253704 0.000000 33.147579
Head 2.067378 11.512668 2.159803
2
root 2.535705 37.100437 1.819441 -3.448357 -4.539731 1.885493
RightUpLeg 9.935969 -4.484835 -4.353858
RightLeg -4.756991 -0.000000 0.000000
RightFoot -11.747240 -14.621306 16.233714
RightToeBase 15.860873 -0.000000 -0.000000
LeftUpLeg 8.851329 2.647974 1.018321
LeftLeg -1.971644 -0.000000 0.000000
LeftFoot -9.773318 14.391876 -17.239675
LeftToeBase 9.918544 -0.000000 -0.000000
Spine 6.210188 -1.899867 -1.214449
RightShoulder -1.851732 -12.059191 -27.127395
RightArm 11.506155 29.216344 28.431642
RightForeArm 9.944533 0.000000 17.514176
RightHand -0.366456 -0.000000 -2.602848
RightHandThumb1 -24.326973 -0.000000 -32.862282
LeftShoulder -19.908416 33.292601 16.331179
LeftArm 43.528270 -47.486296 -50.591033
LeftForeArm 40.311864 -0.000000 6.918781
LeftHand -19.040352 -0.000000 -7.443439
LeftHandThumb1 -26.253704 0.000000 33.147579
Head 2.052066 11.544322 2.124676
3
root 2.531677 37.100225 1.820157 -3.449621 -4.546560 1.882750
RightUpLeg 9.941345 -4.487567 -4.345689
RightLeg -4.761412 -0.000000 0.000000
RightFoot -11.756922 -14.615344 16.252301
RightToeBase 15.887780 -0.000000 -0.000000
LeftUpLeg 8.855301 2.640954 1.028474
LeftLeg -1.971711 -0.000000 0.000000
LeftFoot -9.777839 14.390459 -17.269757
LeftToeBase 9.938052 -0.000000 -0.000000
Spine 6.187406 -1.867525 -1.213922
RightShoulder -1.834306 -12.063130 -27.092561
RightArm 11.565734 29.169899 28.432120
RightForeArm 10.028023 -0.000000 17.519561
RightHand -0.266272 -0.000000 -2.646461
RightHandThumb1 -24.326973 -0.000000 -32.862282
LeftShoulder -19.904730 33.305742 16.319588
LeftArm 43.496853 -47.465740 -50.538259
LeftForeArm 40.304658 -0.000000 6.948267
LeftHand -19.065536 -0.000000 -7.437740
LeftHandThumb1 -26.253704 0.000000 33.147579
Head 2.063187 11.564426 2.129602
4
root 2.529050 37.100568 1.819644 -3.440237 -4.554565 1.885489
RightUpLeg 9.927499 -4.526561 -4.349255
RightLeg -4.757401 -0.000000 0.000000
RightFoot -11.754738 -14.578144 16.236917
RightToeBase 15.886222 -0.000000 -0.000000
LeftUpLeg 8.839525 2.650180 1.030511
LeftLeg -1.957527 -0.000000 0.000000
LeftFoot -9.780539 14.378266 -17.282279
LeftToeBase 9.912014 -0.000000 -0.000000
Spine 6.152905 -1.831985 -1.212150
RightShoulder -1.815403 -12.055690 -27.052437
RightArm 11.610636 29.194930 28.440889
RightForeArm 10.095421 -0.000000 17.565338
RightHand -0.294160 0.000000 -2.668289
RightHandThumb1 -24.326973 -0.000000 -32.862282
LeftShoulder -19.900962 33.298299 16.295868
LeftArm 43.436650 -47.424507 -50.443205
LeftForeArm 40.273740 -0.000000 6.974215
LeftHand -19.086688 -0.000000 -7.347931
LeftHandThumb1 -26.253704 0.000000 33.147579
Head 2.047428 11.579424 2.085441
5
root 2.525801 37.100511 1.819810 -3.434140 -4.567626 1.888964
RightUpLeg 9.922426 -4.552533 -4.352144
RightLeg -4.764516 -0.000000 0.000000
RightFoot -11.741203 -14.546773 16.237301
RightToeBase 15.840074 -0.000000 -0.000000
LeftUpLeg 8.832113 2.654126 1.031451
LeftLeg -1.952230 -0.000000 0.000000
LeftFoot -9.774808 14.388948 -17.279594
LeftToeBase 9.895220 -0.000000 -0.000000
Spine 6.120229 -1.796004 -1.214090
RightShoulder -1.785721 -12.033482 -27.029502
RightArm 11.644938 29.358527 28.541234
RightForeArm 10.008292 -0.000000 17.705624
RightHand -0.322418 -0.000000 -2.708466
RightHandThumb1 -24.326973 -0.000000 -32.862282
LeftShoulder -19.904952 33.291326 16.272747
LeftArm 43.399656 -47.397291 -50.381404
LeftForeArm 40.280638 -0.000000 6.997818
LeftHand -18.963639 -0.000000 -7.339192
LeftHandThumb1 -26.253704 0.000000 33.147579
Head 2.048968 11.605409 2.061177
6
root 2.522576 37.100514 1.820406 -3.428658 -4.582331 1.890424
RightUpLeg 9.915858 -4.590705 -4.353592
RightLeg -4.762587 -0.000000 0.000000
RightFoot -11.737099 -14.511417 16.213047
RightToeBase 15.868515 -0.000000 -0.000000
LeftUpLeg 8.828922 2.657885 1.035029
LeftLeg -1.950301 -0.000000 0.000000
LeftFoot -9.789677 14.388883 -17.290644
LeftToeBase 9.967280 -0.000000 -0.000000
Spine 6.089414 -1.752555 -1.216983
RightShoulder -1.764738 -12.005238 -26.997842
RightArm 11.678393 29.477402 28.617694
RightForeArm 9.959634 -0.000000 17.817456
RightHand -0.211994 0.000000 -2.577826
RightHandThumb1 -24.326973 -0.000000 -32.862282
LeftShoulder -19.905414 33.292276 16.259936
LeftArm 43.381019 -47.374097 -50.365849
LeftForeArm 40.285430 -0.000000 7.050994
LeftHand -18.940594 -0.000000 -7.301850
LeftHandThumb1 -26.253704 0.000000 33.147579
Head 2.041705 11.619523 2.043372
7
root 2.518205 37.100332 1.821457 -3.424392 -4.594482 1.883362
RightUpLeg 9.914425 -4.628121 -4.344268
RightLeg -4.766281 -0.000000 0.000000
RightFoot -11.726137 -14.468336 16.235490
RightToeBase 15.849859 -0.000000 -0.000000
LeftUpLeg 8.827750 2.671980 1.055932
LeftLeg -1.948798 -0.000000 0.000000
LeftFoot -9.770017 14.356725 -17.239882
LeftToeBase 9.906457 -0.000000 -0.000000
Spine 6.055765 -1.712801 -1.209215
RightShoulder -1.739645 -11.977863 -26.966193
RightArm 11.730833 29.577095 28.709772
RightForeArm 9.961220 0.000000 17.963477
RightHand -0.413035 -0.000000 -2.722354
RightHandThumb1 -24.326973 -0.000000 -32.862282
LeftShoulder -19.933289 33.340556 16.224798
LeftArm 43.449801 -47.373515 -50.426190
LeftForeArm 40.303299 -0.000000 7.130733
LeftHand -19.066367 -0.000000 -7.315737
LeftHandThumb1 -26.253704 0.000000 33.147579
Head 2.054217 11.619429 2.012065
8
root 2.514725 37.100258 1.821138 -3.413792 -4.611777 1.885630
RightUpLeg 9.896023 -4.683753 -4.346248
RightLeg -4.757277 -0.000000 0.000000
RightFoot -11.717783 -14.427382 16.179363
RightToeBase 15.876545 -0.000000 -0.000000
LeftUpLeg 8.811673 2.673477 1.057395
LeftLeg -1.935717 -0.000000 0.000000
LeftFoot -9.780806 14.369372 -17.261109
LeftToeBase 9.928224 -0.000000 -0.000000
Spine 6.017224 -1.665038 -1.209056
RightShoulder -1.719090 -11.969230 -26.930780
RightArm 11.793278 29.656878 28.787525
RightForeArm 10.006115 -0.000000 18.061464
RightHand -0.251816 -0.000000 -2.741803
RightHandThumb1 -24.326973 -0.000000 -32.862282
LeftShoulder -19.978261 33.371293 16.160279
LeftArm 43.482110 -47.304291 -50.364555
LeftForeArm 40.265217 -0.000000 7.121807
LeftHand -18.974823 0.000000 -7.280219
LeftHandThumb1 -26.253704 0.000000 33.147579
Head 2.053063 11.612431 1.972494
9
root 2.511399 37.100311 1.822513 -3.413348 -4.629221 1.888495
RightUpLeg 9.894878 -4.731227 -4.351742
RightLeg -4.756419 -0.000000 0.000000
RightFoot -11.705439 -14.370835 16.170970
RightToeBase 15.829195 -0.000000 -0.000000
LeftUpLeg 8.812833 2.687767 1.060234
LeftLeg -1.929285 -0.000000 0.000000
LeftFoot -9.785020 14.366861 -17.281046
LeftToeBase 9.935832 -0.000000 -0.000000
Spine 5.987124 -1.614119 -1.210487
RightShoulder -1.699903 -11.930762 -26.890564
RightArm 11.856236 29.686311 28.869000
RightForeArm 10.025621 -0.000000 18.182330
RightHand -0.233021 -0.000000 -2.948335
RightHandThumb1 -24.326973 -0.000000 -32.862282
LeftShoulder -19.956149 33.365940 16.171468
LeftArm 43.399995 -47.212306 -50.313822
LeftForeArm 40.270607 -0.000000 7.176128
LeftHand -18.971627 -0.000000 -7.214321
LeftHandThumb1 -26.253704 0.000000 33.147579
Head 2.057745 11.602079 1.935007
10
root 2.508328 37.099962 1.823820 -3.413375 -4.650188 1.888969
RightUpLeg 9.893919 -4.771432 -4.352354
RightLeg -4.759088 -0.000000 0.000000
RightFoot -11.703050 -14.328801 16.163879
RightToeBase 15.841420 -0.000000 -0.000000
LeftUpLeg 8.817031 2.697895 1.058490
LeftLeg -1.928239 -0.000000 0.000000
LeftFoot -9.812696 14.406850 -17.309162
LeftToeBase 9.958481 -0.000000 -0.000000
Spine 5.952951 -1.571118 -1.212818
RightShoulder -1.650890 -11.919144 -26.850635
RightArm 11.911804 29.772615 28.952453
RightForeArm 10.083088 -0.000000 18.307911
RightHand -0.152235 0.000000 -2.985723
RightHandThumb1 -24.326973 -0.000000 -32.862282
LeftShoulder -19.972800 33.394759 16.153533
LeftArm 43.360614 -47.092278 -50.261827
LeftForeArm 40.238465 -0.000000 7.206271
LeftHand -18.939937 0.000000 -7.071210
LeftHandThumb1 -26.253704 0.000000 33.147579
Head 2.095604 11.624148 1.938945
11
root 2.506456 37.099888 1.823005 -3.402319 -4.678827 1.897413
RightUpLeg 9.869797 -4.791013 -4.359569
RightLeg -4.746737 -0.000000 0.000000
RightFoot -11.702840 -14.297496 16.151828
RightToeBase 15.831163 -0.000000 -0.000000
LeftUpLeg 8.800393 2.713553 1.052171
LeftLeg -1.914098 -0.000000 0.000000
LeftFoot -9.821145 14.417354 -17.331649
LeftToeBase 9.936079 -0.000000 -0.000000
Spine 5.908859 -1.504010 -1.221486
RightShoulder -1.609091 -11.878807 -26.785810
RightArm 11.950240 29.831170 29.003301
RightForeArm 10.210987 -0.000000 18.439569
RightHand -0.127818 -0.000000 -3.111157
RightHandThumb1 -24.326973 -0.000000 -32.862282
LeftShoulder -19.975755 33.410424 16.131257
LeftArm 43.333550 -46.993161 -50.233918
LeftForeArm 40.239916 -0.000000 7.290024
LeftHand -18.923300 -0.000000 -7.107626
LeftHandThumb1 -26.253704 0.000000 33.147579
Head 2.112789 11.613431 1.915801
12
root 2.502696 37.099732 1.823535 -3.405327 -4.706157 1.894720
RightUpLeg 9.871574 -4.803956 -4.353930
RightLeg -4.751381 -0.000000 0.000000
RightFoot -11.699470 -14.279024 16.123413
RightToeBase 15.849298 -0.000000 -0.000000
LeftUpLeg 8.801533 2.732223 1.065215
LeftLeg -1.900522 -0.000000 0.000000
LeftFoot -9.809823 14.407828 -17.276499
LeftToeBase 9.923713 -0.000000 -0.000000
Spine 5.881336 -1.452614 -1.222762
RightShoulder -1.563640 -11.834081 -26.734512
RightArm 12.044009 29.939871 29.126460
RightForeArm 10.404060 -0.000000 18.547248
RightHand 0.076639 -0.000000 -3.289372
RightHandThumb1 -24.326973 -0.000000 -32.862282
LeftShoulder -20.031724 33.467440 16.078184
LeftArm 43.426205 -46.890977 -50.298519
LeftForeArm 40.247393 0.000000 7.322488
LeftHand -18.935407 -0.000000 -7.008968
LeftHandThumb1 -26.253704 0.000000 33.147579
Head 2.134729 11.636715 1.901872
13
root 2.498851 37.099695 1.826147 -3.420171 -4.725273 1.893999
RightUpLeg 9.893791 -4.816098 -4.349914
RightLeg -4.762230 -0.000000 0.000000
RightFoot -11.699361 -14.248821 16.149325
RightToeBase 15.861395 -0.000000 -0.000000
LeftUpLeg 8.815735 2.761396 1.069320
LeftLeg -1.883755 -0.000000 0.000000
LeftFoot -9.838160 14.413125 -17.315212
LeftToeBase 9.947469 -0.000000 -0.000000
Spine 5.863009 -1.396352 -1.222831
RightShoulder -1.529184 -11.814242 -26.671682
RightArm 12.133065 30.098084 29.263857
RightForeArm 10.457851 -0.000000 18.750346
RightHand 0.061562 -0.000000 -3.560011
RightHandThumb1 -24.326973 -0.000000 -32.862282
LeftShoulder -20.082553 33.545768 16.025924
LeftArm 43.501313 -46.759359 -50.367509
LeftForeArm 40.159059 -0.000000 7.407265
LeftHand -18.865555 -0.000000 -6.925186
LeftHandThumb1 -26.253704 0.000000 33.147579
Head 2.155317 11.634258 1.877214
